<svg width="32" height="32" viewBox="0 0 32 32" fill="none" xmlns="http://www.w3.org/2000/svg">
  <defs>
    <linearGradient id="grad1" x1="0%" y1="0%" x2="100%" y2="100%">
      <stop offset="0%" style="stop-color:#8A2BE2;stop-opacity:1" />
      <stop offset="100%" style="stop-color:#4B0082;stop-opacity:1" />
    </linearGradient>
  </defs>
  
  <!-- Background circle with gradient -->
  <circle cx="16" cy="16" r="15" fill="url(#grad1)" stroke="#E0E0E0" stroke-width="1"/>
  
  <!-- S letter -->
  <path d="M10 12C10 10.8954 10.8954 10 12 10H14C15.1046 10 16 10.8954 16 12C16 13.1046 15.1046 14 14 14H12C10.8954 14 10 14.8954 10 16C10 17.1046 10.8954 18 12 18H14C15.1046 18 16 17.1046 16 16" 
        stroke="#FFFFFF" stroke-width="2" stroke-linecap="round" stroke-linejoin="round" fill="none"/>
  
  <!-- P letter -->
  <path d="M18 10H22C23.1046 10 24 10.8954 24 12C24 13.1046 23.1046 14 22 14H18V22" 
        stroke="#FFFFFF" stroke-width="2" stroke-linecap="round" stroke-linejoin="round" fill="none"/>
</svg>
